<svg width="33" height="32" viewBox="0 0 33 32" fill="none" xmlns="http://www.w3.org/2000/svg">
<path d="M27.375 5H5.375C4.84457 5 4.33586 5.21071 3.96079 5.58579C3.58571 5.96086 3.375 6.46957 3.375 7V27C3.37509 27.1704 3.41874 27.338 3.50181 27.4869C3.58488 27.6357 3.70461 27.7608 3.84963 27.8503C3.99465 27.9399 4.16016 27.9909 4.33043 27.9985C4.50069 28.0061 4.67008 27.97 4.8225 27.8937L8.375 26.1175L11.9275 27.8937C12.0664 27.9633 12.2196 27.9995 12.375 27.9995C12.5304 27.9995 12.6836 27.9633 12.8225 27.8937L16.375 26.1175L19.9275 27.8937C20.0664 27.9633 20.2196 27.9995 20.375 27.9995C20.5304 27.9995 20.6836 27.9633 20.8225 27.8937L24.375 26.1175L27.9275 27.8937C28.0799 27.97 28.2493 28.0061 28.4196 27.9985C28.5898 27.9909 28.7553 27.9399 28.9004 27.8503C29.0454 27.7608 29.1651 27.6357 29.2482 27.4869C29.3313 27.338 29.3749 27.1704 29.375 27V7C29.375 6.46957 29.1643 5.96086 28.7892 5.58579C28.4141 5.21071 27.9054 5 27.375 5ZM27.375 25.3825L24.8225 24.105C24.6836 24.0355 24.5304 23.9993 24.375 23.9993C24.2196 23.9993 24.0664 24.0355 23.9275 24.105L20.375 25.8825L16.8225 24.105C16.6836 24.0355 16.5304 23.9993 16.375 23.9993C16.2196 23.9993 16.0664 24.0355 15.9275 24.105L12.375 25.8825L8.8225 24.105C8.68357 24.0355 8.53035 23.9993 8.375 23.9993C8.21965 23.9993 8.06643 24.0355 7.9275 24.105L5.375 25.3825V7H27.375V25.3825ZM17.375 14C17.375 13.7348 17.4804 13.4804 17.6679 13.2929C17.8554 13.1054 18.1098 13 18.375 13H24.375C24.6402 13 24.8946 13.1054 25.0821 13.2929C25.2696 13.4804 25.375 13.7348 25.375 14C25.375 14.2652 25.2696 14.5196 25.0821 14.7071C24.8946 14.8946 24.6402 15 24.375 15H18.375C18.1098 15 17.8554 14.8946 17.6679 14.7071C17.4804 14.5196 17.375 14.2652 17.375 14ZM17.375 18C17.375 17.7348 17.4804 17.4804 17.6679 17.2929C17.8554 17.1054 18.1098 17 18.375 17H24.375C24.6402 17 24.8946 17.1054 25.0821 17.2929C25.2696 17.4804 25.375 17.7348 25.375 18C25.375 18.2652 25.2696 18.5196 25.0821 18.7071C24.8946 18.8946 24.6402 19 24.375 19H18.375C18.1098 19 17.8554 18.8946 17.6679 18.7071C17.4804 18.5196 17.375 18.2652 17.375 18ZM8.375 21H14.375C14.6402 21 14.8946 20.8946 15.0821 20.7071C15.2696 20.5196 15.375 20.2652 15.375 20V12C15.375 11.7348 15.2696 11.4804 15.0821 11.2929C14.8946 11.1054 14.6402 11 14.375 11H8.375C8.10978 11 7.85543 11.1054 7.66789 11.2929C7.48036 11.4804 7.375 11.7348 7.375 12V20C7.375 20.2652 7.48036 20.5196 7.66789 20.7071C7.85543 20.8946 8.10978 21 8.375 21ZM9.375 13H13.375V19H9.375V13Z" fill="black"/>
</svg>
